<?xml version="1.0" ?><svg viewBox="0 0 69.45 69.45" xmlns="http://www.w3.org/2000/svg"
    xmlns:xlink="http://www.w3.org/1999/xlink">
    <defs>
        <style>
            .cls-1 {
                fill: url(#linear-gradient);
            }

            .cls-2 {
                fill: #fff;
            }
        </style>
        <linearGradient gradientUnits="userSpaceOnUse" id="linear-gradient" x1="34.72" x2="34.72" y2="69.45">
            <stop offset="0" stop-color="#78d2f9" />
            <stop offset="1" stop-color="#3458e9" />
        </linearGradient>
    </defs>
    <title />
    <g data-name="Layer 2" id="Layer_2">
        <g data-name="Layer 1" id="Layer_1-2">
            <circle class="cls-1" cx="34.72" cy="34.72" r="34.72" />
            <path class="cls-2"
                d="M34.65,20.16l1.12-1.93a2.52,2.52,0,0,1,4.37,2.51L29.35,39.41h7.8a3.45,3.45,0,0,1,2.85,5H17.13a2.52,2.52,0,1,1,0-5h6.41l8.21-14.23-2.56-4.45a2.52,2.52,0,1,1,4.36-2.51l1.1,1.94ZM25,47l-2.42,4.2a2.52,2.52,0,0,1-4.37-2.52L20,45.6A4.32,4.32,0,0,1,25,47Zm20.83-7.6h6.54a2.52,2.52,0,0,1,0,5H48.68l2.46,4.25a2.52,2.52,0,0,1-4.37,2.52q-6.19-10.75-9.29-16.1a7,7,0,0,1,.88-8.52q2.47,4.25,7.42,12.82Z" />
        </g>
    </g>
</svg>